# xmcd CD database file
#
# Track frame offsets:
#	150
#	27760
#	58735
#	92635
#	118735
#	137935
#	159001
#	179776
#	195676
#
# Disc length: 2997 seconds
#
# Revision: 0
# Processed by: cddbd v1.5.2PL0 Copyright (c) Steve Scherf et al.
# Submitted via: CDex 1.81
#
DISCID=7a0bb309
DTITLE=Jonny O'Neal Trio - O'Neal is back
DYEAR=2015
DGENRE=Jazz
TTITLE0=Let Me Love You
TTITLE1=With Every Breath I Take
TTITLE2=Sudan Blue
TTITLE3=I Concentrate On You
TTITLE4=Maybe Today
TTITLE5=Tight
TTITLE6=First Time On A Ferris Wheel
TTITLE7=We'll Be Together Again
TTITLE8=It's Too Late
EXTD=YEAR: 2015
EXTT0=
EXTT1=
EXTT2=
EXTT3=
EXTT4=
EXTT5=
EXTT6=
EXTT7=
EXTT8=
PLAYORDER=
